<?xml version="1.0" encoding="utf-8"?>
<svg width="23px" height="23px" viewBox="0 0 23 23" version="1.1" xmlns:xlink="http://www.w3.org/1999/xlink" xmlns="http://www.w3.org/2000/svg">
  <defs>
    <filter id="filter_1">
      <feColorMatrix in="SourceGraphic" type="matrix" values="0 0 0 0 1 0 0 0 0 1 0 0 0 0 1 0 0 0 1 0" />
    </filter>
    <path d="M11.5 23C17.8513 23 23 17.8513 23 11.5C23 5.14873 17.8513 0 11.5 0C5.14873 0 0 5.14873 0 11.5C0 17.8513 5.14873 23 11.5 23Z" id="path_1" />
    <clipPath id="mask_1">
      <use xlink:href="#path_1" />
    </clipPath>
  </defs>
  <g id="facebook-(1)">
    <path d="M11.5 23C17.8513 23 23 17.8513 23 11.5C23 5.14873 17.8513 0 11.5 0C5.14873 0 0 5.14873 0 11.5C0 17.8513 5.14873 23 11.5 23Z" id="Mask" fill="#1977F2" fill-rule="evenodd" stroke="none" />
    <g clip-path="url(#mask_1)">
      <g id="facebook-(1)" transform="translate(6.708313 5.75)" filter="url(#filter_1)">
        <path d="M2.38979 9.75582C2.33005 9.75582 1.01566 9.75582 0.418213 9.75582C0.0995746 9.75582 0 9.62603 0 9.30155C0 8.43629 0 7.5494 0 6.68414C0 6.33804 0.11949 6.22988 0.418213 6.22988L2.38979 6.22988C2.38979 6.16498 2.38979 4.91036 2.38979 4.3263C2.38979 3.46104 2.5292 2.63905 2.92749 1.88194C3.34571 1.10321 3.94316 0.584051 4.69992 0.28121C5.1978 0.0865261 5.69567 0 6.23337 0L8.18503 0C8.46384 0 8.58333 0.129789 8.58333 0.43263L8.58333 2.89862C8.58333 3.20146 8.46384 3.33125 8.18503 3.33125C7.64733 3.33125 7.10963 3.33125 6.57193 3.35289C6.03422 3.35289 5.75541 3.6341 5.75541 4.23978C5.7355 4.88872 5.75541 5.51604 5.75541 6.18661L8.06555 6.18661C8.38418 6.18661 8.50367 6.3164 8.50367 6.66251L8.50367 9.27992C8.50367 9.62603 8.4041 9.73418 8.06555 9.73418C7.34861 9.73418 5.81516 9.73418 5.75541 9.73418L5.75541 20.1085C5.75541 20.4763 5.65584 20.6061 5.29737 20.6061C4.46094 20.6061 3.64443 20.6061 2.808 20.6061C2.50928 20.6061 2.38979 20.4763 2.38979 20.1518C2.38979 17.8805 2.38979 9.82071 2.38979 9.75582Z" id="Icon_11_" fill="#000000" fill-rule="evenodd" stroke="none" />
      </g>
    </g>
  </g>
</svg>