<?xml version="1.0" encoding="utf-8"?>
<svg width="23px" height="23px" viewBox="0 0 23 23" version="1.1" xmlns:xlink="http://www.w3.org/1999/xlink" xmlns="http://www.w3.org/2000/svg">
  <defs>
    <linearGradient x1="0.777364" y1="0.086554565" x2="0.07414896" y2="1" id="gradient_1">
      <stop offset="0" stop-color="#9039A6" />
      <stop offset="0.45807952" stop-color="#DC376F" />
      <stop offset="1" stop-color="#FA9126" />
    </linearGradient>
    <linearGradient x1="1.5520687" y1="-0.6829178" x2="0.07414896" y2="1" id="gradient_2">
      <stop offset="0" stop-color="#9039A6" />
      <stop offset="0.45807952" stop-color="#DC376F" />
      <stop offset="1" stop-color="#FA9126" />
    </linearGradient>
  </defs>
  <g id="instagram-(3)" opacity="0.90000004">
    <path d="M22.9415 6.76208C22.8877 5.54 22.69 4.69983 22.4068 3.97181C22.1147 3.19904 21.6653 2.50717 21.0766 1.93202C20.5013 1.34792 19.8047 0.894053 19.0408 0.606566C18.3084 0.323467 17.4725 0.125841 16.2501 0.0719594C15.0187 0.0135143 14.6278 0 11.5045 0C8.38119 0 7.99025 0.0135143 6.76337 0.0673962C5.54106 0.121278 4.70073 0.319079 3.97274 0.602002C3.19965 0.894053 2.50765 1.34336 1.93239 1.93202C1.34818 2.50717 0.894399 3.2036 0.606681 3.96742C0.323528 4.69983 0.125865 5.53544 0.0719732 6.75752C0.0135169 7.98873 0 8.37959 0 11.5023C0 14.625 0.0135169 15.0158 0.067409 16.2425C0.121301 17.4646 0.31914 18.3047 0.602293 19.0328C0.894399 19.8055 1.34818 20.4974 1.93239 21.0725C2.50765 21.6566 3.20421 22.1105 3.96818 22.398C4.70073 22.6811 5.53649 22.8787 6.75899 22.9326C7.98569 22.9867 8.3768 23 11.5001 23C14.6234 23 15.0143 22.9867 16.2412 22.9326C17.4635 22.8787 18.3038 22.6811 19.0318 22.398C20.5778 21.8004 21.8002 20.5783 22.3979 19.0328C22.6809 18.3003 22.8787 17.4646 22.9326 16.2425C22.9865 15.0158 23 14.625 23 11.5023C23 8.37959 22.9954 7.98873 22.9415 6.76208ZM20.8699 16.1526C20.8204 17.2759 20.6317 17.8825 20.4744 18.2868C20.0879 19.2888 19.2925 20.0841 18.2903 20.4705C17.8859 20.6278 17.2748 20.8165 16.1557 20.8658C14.9423 20.9198 14.5784 20.9332 11.509 20.9332C8.43965 20.9332 8.07118 20.9198 6.86221 20.8658C5.73872 20.8165 5.13204 20.6278 4.72759 20.4705C4.22886 20.2863 3.77491 19.9942 3.40644 19.6123C3.02445 19.2393 2.73235 18.79 2.54803 18.2914C2.39074 17.887 2.20203 17.2759 2.1527 16.1572C2.09863 14.9441 2.08529 14.58 2.08529 11.5112C2.08529 8.44242 2.09863 8.07403 2.1527 6.86546C2.20203 5.74219 2.39074 5.13562 2.54803 4.73125C2.73235 4.23244 3.02445 3.77875 3.411 3.41018C3.78386 3.02826 4.23325 2.73621 4.73215 2.5521C5.1366 2.39485 5.74785 2.20617 6.86677 2.15668C8.08013 2.1028 8.44421 2.08928 11.5134 2.08928C14.5874 2.08928 14.9513 2.1028 16.1603 2.15668C17.2837 2.20617 17.8904 2.39485 18.2949 2.5521C18.7936 2.73621 19.2476 3.02826 19.616 3.41018C19.998 3.78314 20.2901 4.23244 20.4744 4.73125C20.6317 5.13562 20.8204 5.74658 20.8699 6.86546C20.9238 8.07859 20.9374 8.44242 20.9374 11.5112C20.9374 14.58 20.9238 14.9395 20.8699 16.1526Z" id="Shape" fill="url(#gradient_1)" stroke="none" />
    <path d="M5.90953 0C2.64703 0 0 2.64635 0 5.9084C0 9.17044 2.64703 11.8168 5.90953 11.8168C9.17219 11.8168 11.8191 9.17044 11.8191 5.9084C11.8191 2.64635 9.17219 0 5.90953 0ZM5.90953 9.74103C3.79299 9.74103 2.07616 8.02471 2.07616 5.9084C2.07616 3.79209 3.79299 2.07577 5.90953 2.07577C8.02624 2.07577 9.74289 3.79209 9.74289 5.9084C9.74289 8.02471 8.02624 9.74103 5.90953 9.74103L5.90953 9.74103Z" transform="translate(5.5949707 5.593994)" id="Shape" fill="url(#gradient_2)" stroke="none" />
    <path d="M2.75938 1.37934C2.75938 2.14106 2.14164 2.75868 1.3796 2.75868C0.617741 2.75868 0 2.14106 0 1.37934C0 0.617447 0.617741 0 1.3796 0C2.14164 0 2.75938 0.617447 2.75938 1.37934L2.75938 1.37934Z" transform="translate(16.268066 3.980957)" id="Path" fill="#943BA7" fill-rule="evenodd" stroke="none" />
  </g>
</svg>