<?xml version="1.0" encoding="utf-8"?>
<svg width="23px" height="23px" viewBox="0 0 23 23" version="1.1" xmlns:xlink="http://www.w3.org/1999/xlink" xmlns="http://www.w3.org/2000/svg">
  <g id="linkedin">
    <path d="M11.5 0C17.8516 0 23 5.14912 23 11.5C23 17.851 17.8516 23 11.5 23C5.14833 23 0 17.8509 0 11.5C0 5.1492 5.14841 0 11.5 0Z" id="Path" fill="#0E76A8" fill-rule="evenodd" stroke="none" />
    <path d="M0.0115269 10.051L2.16492 10.051L2.16492 2.87351L0.0115269 2.87351L0.0115269 10.051ZM8.40081 2.62489C7.35573 2.62489 6.42063 3.00654 5.75728 3.84895L5.75728 2.8499L3.59599 2.8499L3.59599 10.051L5.75728 10.051L5.75728 6.15686C5.75728 5.33387 6.51127 4.53101 7.45568 4.53101C8.4001 4.53101 8.633 5.33387 8.633 6.13672L8.633 10.0503L10.7864 10.0503L10.7864 5.97645C10.7863 3.14668 9.4466 2.62489 8.40081 2.62489ZM1.07816 2.15624C1.67329 2.15624 2.15632 1.67321 2.15632 1.07808C2.15632 0.482945 1.67329 0 1.07816 0C0.483024 0 0 0.483024 0 1.07816C0 1.67329 0.483024 2.15624 1.07816 2.15624Z" transform="translate(6.468689 5.75)" id="Shape" fill="#FFFFFF" stroke="none" />
  </g>
</svg>