<?xml version="1.0" encoding="utf-8"?>
<svg width="23px" height="23px" viewBox="0 0 23 23" version="1.1" xmlns:xlink="http://www.w3.org/1999/xlink" xmlns="http://www.w3.org/2000/svg">
  <defs>
    <filter id="filter_1">
      <feColorMatrix in="SourceGraphic" type="matrix" values="0 0 0 0 1 0 0 0 0 1 0 0 0 0 1 0 0 0 1 0" />
    </filter>
  </defs>
  <g id="Group-14">
    <path d="M11.5 23C17.8513 23 23 17.8513 23 11.5C23 5.14873 17.8513 0 11.5 0C5.14873 0 0 5.14873 0 11.5C0 17.8513 5.14873 23 11.5 23Z" id="Oval" fill="#1DA1F1" fill-rule="evenodd" stroke="none" />
    <g id="twitter" transform="translate(5.75 6.7083335)" filter="url(#filter_1)">
      <path d="M12.5 1.2409C12.0313 1.4504 11.5469 1.59544 11.0313 1.6599C11.5625 1.33759 11.9688 0.821893 12.1563 0.193387C11.6563 0.499582 11.1094 0.709085 10.5313 0.838009C10.0625 0.322311 9.39063 0 8.65625 0C7.23438 0 6.09375 1.19255 6.09375 2.64295C6.09375 2.85245 6.10938 3.04584 6.15625 3.23923C4.03125 3.14253 2.15625 2.07891 0.890625 0.483467C-0.015625 2.15948 1 3.54542 1.67188 4.01277C1.26563 4.01277 0.859375 3.88385 0.515625 3.69046C0.515625 4.99582 1.40625 6.07557 2.5625 6.3173C2.3125 6.39788 1.75 6.44622 1.40625 6.36565C1.73438 7.41316 2.6875 8.1867 3.79688 8.20282C2.92188 8.9119 1.64062 9.47595 0 9.29868C1.14063 10.0561 2.48438 10.4912 3.9375 10.4912C8.65625 10.4912 11.2188 6.46234 11.2188 2.98138C11.2188 2.86857 11.2188 2.75576 11.2031 2.64295C11.7344 2.24006 12.1719 1.77271 12.5 1.2409L12.5 1.2409Z" id="_x30_4.Twitter" fill="#000000" fill-rule="evenodd" stroke="none" />
    </g>
  </g>
</svg>