<?xml version="1.0" encoding="utf-8"?>
<svg width="23px" height="23px" viewBox="0 0 23 23" version="1.1" xmlns:xlink="http://www.w3.org/1999/xlink" xmlns="http://www.w3.org/2000/svg">
  <g id="Group-23">
    <path d="M11.5 23C17.8513 23 23 17.8513 23 11.5C23 5.14873 17.8513 0 11.5 0C5.14873 0 0 5.14873 0 11.5C0 17.8513 5.14873 23 11.5 23Z" id="Oval" fill="#BFBFBF" fill-rule="evenodd" stroke="none" />
    <g id="youtube-(1)" transform="translate(4.791687 6.708252)">
      <path d="M10.8843 0L2.5324 0C1.12365 0 0 1.19834 0 2.66101L0 7.40149C0 8.88179 1.14042 10.0625 2.5324 10.0625L10.8843 10.0625C12.293 10.0625 13.4167 8.86416 13.4167 7.40149L13.4167 2.66101C13.4167 1.19834 12.2763 0 10.8843 0ZM4.9474 7.20764L4.9474 2.87248L8.46927 5.04006L4.9474 7.20764Z" id="Icon_23_" fill="#FFFFFF" stroke="none" />
    </g>
    <path d="M11.5 23C17.8513 23 23 17.8513 23 11.5C23 5.14873 17.8513 0 11.5 0C5.14873 0 0 5.14873 0 11.5C0 17.8513 5.14873 23 11.5 23Z" id="Oval-Copy" fill="#FF0000" fill-rule="evenodd" stroke="none" />
    <g id="youtube-(1)-copy" transform="translate(4 6)">
      <path d="M12.0876 0L2.81237 0C1.24787 0 0 2.33921 0 3.97384L0 7.27161C0 8.92594 1.2665 11.2455 2.81237 11.2455L12.0876 11.2455C13.6521 11.2455 14.9 8.90624 14.9 7.27161L14.9 3.97384C14.9 2.33921 13.6335 0 12.0876 0ZM5.66565 8.31249L5.66565 3.44249L10.3156 5.87749L5.66565 8.31249Z" id="Icon_23_" fill="#FFFFFF" stroke="none" />
    </g>
  </g>
</svg>